<svg width="101" height="38" viewBox="0 0 101 38" fill="none" xmlns="http://www.w3.org/2000/svg">
<path d="M0 6C0 2.68629 2.68629 0 6 0H95C98.3137 0 101 2.68629 101 6V32C101 35.3137 98.3137 38 95 38H6C2.68629 38 0 35.3137 0 32V6Z" fill="#F83030"/>
<path d="M20.1193 17H18.5341C18.4403 16.544 18.2763 16.1435 18.0419 15.7983C17.8118 15.4531 17.5305 15.1634 17.1982 14.929C16.87 14.6903 16.5057 14.5114 16.1051 14.392C15.7045 14.2727 15.2869 14.2131 14.8523 14.2131C14.0597 14.2131 13.3416 14.4134 12.6982 14.8139C12.0589 15.2145 11.5497 15.8047 11.1705 16.5845C10.7955 17.3643 10.608 18.321 10.608 19.4545C10.608 20.5881 10.7955 21.5447 11.1705 22.3246C11.5497 23.1044 12.0589 23.6946 12.6982 24.0952C13.3416 24.4957 14.0597 24.696 14.8523 24.696C15.2869 24.696 15.7045 24.6364 16.1051 24.517C16.5057 24.3977 16.87 24.2209 17.1982 23.9865C17.5305 23.7479 17.8118 23.456 18.0419 23.1108C18.2763 22.7614 18.4403 22.3608 18.5341 21.9091H20.1193C20 22.5781 19.7827 23.1768 19.4673 23.7053C19.152 24.2337 18.7599 24.6832 18.2912 25.054C17.8224 25.4205 17.2962 25.6996 16.7124 25.8913C16.1328 26.0831 15.5128 26.179 14.8523 26.179C13.7358 26.179 12.7429 25.9062 11.8736 25.3608C11.0043 24.8153 10.3203 24.0398 9.82173 23.0341C9.32315 22.0284 9.07386 20.8352 9.07386 19.4545C9.07386 18.0739 9.32315 16.8807 9.82173 15.875C10.3203 14.8693 11.0043 14.0938 11.8736 13.5483C12.7429 13.0028 13.7358 12.7301 14.8523 12.7301C15.5128 12.7301 16.1328 12.826 16.7124 13.0178C17.2962 13.2095 17.8224 13.4908 18.2912 13.8615C18.7599 14.228 19.152 14.6754 19.4673 15.2038C19.7827 15.728 20 16.3267 20.1193 17ZM25.3656 26.2301C24.7434 26.2301 24.1788 26.1129 23.6717 25.8786C23.1646 25.6399 22.7619 25.2969 22.4636 24.8494C22.1653 24.3977 22.0162 23.8523 22.0162 23.2131C22.0162 22.6506 22.127 22.1946 22.3485 21.8452C22.5701 21.4915 22.8663 21.2145 23.237 21.0142C23.6078 20.8139 24.0169 20.6648 24.4643 20.5668C24.916 20.4645 25.3699 20.3835 25.8258 20.3239C26.4224 20.2472 26.9061 20.1896 27.2768 20.1513C27.6518 20.1087 27.9245 20.0384 28.095 19.9403C28.2697 19.8423 28.3571 19.6719 28.3571 19.429V19.3778C28.3571 18.7472 28.1845 18.2571 27.8393 17.9077C27.4984 17.5582 26.9806 17.3835 26.286 17.3835C25.5659 17.3835 25.0012 17.5412 24.5922 17.8565C24.1831 18.1719 23.8954 18.5085 23.7292 18.8665L22.2974 18.3551C22.5531 17.7585 22.894 17.294 23.3201 16.9616C23.7505 16.625 24.2193 16.3906 24.7264 16.2585C25.2377 16.1222 25.7406 16.054 26.2349 16.054C26.5502 16.054 26.9125 16.0923 27.3216 16.169C27.7349 16.2415 28.1333 16.3928 28.5169 16.6229C28.9047 16.853 29.2264 17.2003 29.4821 17.6648C29.7377 18.1293 29.8656 18.7514 29.8656 19.5312V26H28.3571V24.6705H28.2804C28.1781 24.8835 28.0076 25.1115 27.769 25.3544C27.5304 25.5973 27.2129 25.804 26.8166 25.9744C26.4203 26.1449 25.9366 26.2301 25.3656 26.2301ZM25.5957 24.875C26.1923 24.875 26.6951 24.7578 27.1042 24.5234C27.5176 24.2891 27.8287 23.9865 28.0375 23.6158C28.2505 23.245 28.3571 22.8551 28.3571 22.446V21.0653C28.2931 21.142 28.1525 21.2124 27.9352 21.2763C27.7221 21.3359 27.475 21.3892 27.1937 21.4361C26.9167 21.4787 26.6461 21.517 26.3819 21.5511C26.122 21.581 25.911 21.6065 25.7491 21.6278C25.3571 21.679 24.9906 21.7621 24.6497 21.8771C24.313 21.9879 24.0403 22.1562 23.8315 22.3821C23.627 22.6037 23.5247 22.9062 23.5247 23.2898C23.5247 23.8139 23.7186 24.2102 24.1064 24.4787C24.4984 24.7429 24.9949 24.875 25.5957 24.875ZM36.3263 26.2045C35.5082 26.2045 34.7859 25.9979 34.1594 25.5845C33.533 25.1669 33.043 24.5788 32.6893 23.8203C32.3356 23.0575 32.1587 22.1562 32.1587 21.1165C32.1587 20.0852 32.3356 19.1903 32.6893 18.4318C33.043 17.6733 33.5352 17.0874 34.1658 16.674C34.7965 16.2607 35.5252 16.054 36.3519 16.054C36.9911 16.054 37.4961 16.1605 37.8668 16.3736C38.2418 16.5824 38.5273 16.821 38.7234 17.0895C38.9237 17.3537 39.0792 17.571 39.19 17.7415H39.3178V12.9091H40.8264V26H39.369V24.4915H39.19C39.0792 24.6705 38.9215 24.8963 38.717 25.169C38.5124 25.4375 38.2205 25.6783 37.8413 25.8913C37.462 26.1001 36.957 26.2045 36.3263 26.2045ZM36.5309 24.8494C37.136 24.8494 37.6474 24.6918 38.065 24.3764C38.4826 24.0568 38.8001 23.6158 39.0174 23.0533C39.2347 22.4865 39.3434 21.8324 39.3434 21.0909C39.3434 20.358 39.2369 19.7166 39.0238 19.1669C38.8107 18.6129 38.4954 18.1825 38.0778 17.8757C37.6602 17.5646 37.1445 17.4091 36.5309 17.4091C35.8917 17.4091 35.359 17.5732 34.9329 17.9013C34.511 18.2251 34.1935 18.6662 33.9805 19.2244C33.7717 19.7784 33.6673 20.4006 33.6673 21.0909C33.6673 21.7898 33.7738 22.4247 33.9869 22.9957C34.2042 23.5625 34.5238 24.0142 34.9457 24.3509C35.3718 24.6832 35.9002 24.8494 36.5309 24.8494ZM46.6879 26.2301C46.0657 26.2301 45.5011 26.1129 44.994 25.8786C44.4869 25.6399 44.0842 25.2969 43.7859 24.8494C43.4876 24.3977 43.3384 23.8523 43.3384 23.2131C43.3384 22.6506 43.4492 22.1946 43.6708 21.8452C43.8924 21.4915 44.1886 21.2145 44.5593 21.0142C44.93 20.8139 45.3391 20.6648 45.7866 20.5668C46.2383 20.4645 46.6921 20.3835 47.1481 20.3239C47.7447 20.2472 48.2283 20.1896 48.5991 20.1513C48.9741 20.1087 49.2468 20.0384 49.4173 19.9403C49.592 19.8423 49.6793 19.6719 49.6793 19.429V19.3778C49.6793 18.7472 49.5067 18.2571 49.1616 17.9077C48.8207 17.5582 48.3029 17.3835 47.6083 17.3835C46.8881 17.3835 46.3235 17.5412 45.9144 17.8565C45.5053 18.1719 45.2177 18.5085 45.0515 18.8665L43.6197 18.3551C43.8754 17.7585 44.2163 17.294 44.6424 16.9616C45.0728 16.625 45.5415 16.3906 46.0487 16.2585C46.56 16.1222 47.0629 16.054 47.5572 16.054C47.8725 16.054 48.2347 16.0923 48.6438 16.169C49.0572 16.2415 49.4556 16.3928 49.8391 16.6229C50.2269 16.853 50.5487 17.2003 50.8043 17.6648C51.06 18.1293 51.1879 18.7514 51.1879 19.5312V26H49.6793V24.6705H49.6026C49.5004 24.8835 49.3299 25.1115 49.0913 25.3544C48.8526 25.5973 48.5352 25.804 48.1388 25.9744C47.7425 26.1449 47.2589 26.2301 46.6879 26.2301ZM46.918 24.875C47.5146 24.875 48.0174 24.7578 48.4265 24.5234C48.8398 24.2891 49.1509 23.9865 49.3597 23.6158C49.5728 23.245 49.6793 22.8551 49.6793 22.446V21.0653C49.6154 21.142 49.4748 21.2124 49.2575 21.2763C49.0444 21.3359 48.7972 21.3892 48.516 21.4361C48.239 21.4787 47.9684 21.517 47.7042 21.5511C47.4442 21.581 47.2333 21.6065 47.0714 21.6278C46.6793 21.679 46.3129 21.7621 45.9719 21.8771C45.6353 21.9879 45.3626 22.1562 45.1538 22.3821C44.9492 22.6037 44.8469 22.9062 44.8469 23.2898C44.8469 23.8139 45.0408 24.2102 45.4286 24.4787C45.8207 24.7429 46.3171 24.875 46.918 24.875ZM60.8958 18.3807L59.5407 18.7642C59.4554 18.5384 59.3297 18.3189 59.1635 18.1058C59.0016 17.8885 58.78 17.7095 58.4988 17.5689C58.2175 17.4283 57.8574 17.358 57.4185 17.358C56.8176 17.358 56.3169 17.4964 55.9164 17.7734C55.5201 18.0462 55.3219 18.3935 55.3219 18.8153C55.3219 19.1903 55.4583 19.4865 55.731 19.7038C56.0037 19.9212 56.4299 20.1023 57.0094 20.2472L58.4668 20.6051C59.3446 20.8182 59.9988 21.1442 60.4292 21.5831C60.8596 22.0178 61.0748 22.5781 61.0748 23.2642C61.0748 23.8267 60.9128 24.3295 60.589 24.7727C60.2694 25.2159 59.8219 25.5653 59.2466 25.821C58.6713 26.0767 58.0023 26.2045 57.2395 26.2045C56.2381 26.2045 55.4093 25.9872 54.753 25.5526C54.0968 25.1179 53.6813 24.483 53.5066 23.6477L54.9384 23.2898C55.0748 23.8182 55.3326 24.2145 55.7118 24.4787C56.0953 24.7429 56.5961 24.875 57.214 24.875C57.9171 24.875 58.4753 24.7259 58.8887 24.4276C59.3063 24.125 59.5151 23.7628 59.5151 23.3409C59.5151 23 59.3958 22.7145 59.1571 22.4844C58.9185 22.25 58.552 22.0753 58.0577 21.9602L56.4213 21.5767C55.5222 21.3636 54.8617 21.0334 54.4398 20.5859C54.0222 20.1342 53.8134 19.5696 53.8134 18.892C53.8134 18.3381 53.9689 17.848 54.28 17.4219C54.5953 16.9957 55.0236 16.6612 55.5648 16.4183C56.1103 16.1754 56.7282 16.054 57.4185 16.054C58.3901 16.054 59.1529 16.267 59.7069 16.6932C60.2651 17.1193 60.6614 17.6818 60.8958 18.3807ZM67.6154 16.1818V17.4602H62.5273V16.1818H67.6154ZM64.0103 13.8295H65.5188V23.1875C65.5188 23.6136 65.5806 23.9332 65.7042 24.1463C65.832 24.3551 65.994 24.4957 66.19 24.5682C66.3903 24.6364 66.6012 24.6705 66.8228 24.6705C66.989 24.6705 67.1254 24.6619 67.2319 24.6449C67.3384 24.6236 67.4237 24.6065 67.4876 24.5938L67.7944 25.9489C67.6921 25.9872 67.5494 26.0256 67.3661 26.0639C67.1829 26.1065 66.9506 26.1278 66.6694 26.1278C66.2433 26.1278 65.8256 26.0362 65.4165 25.853C65.0117 25.6697 64.6751 25.3906 64.4066 25.0156C64.1424 24.6406 64.0103 24.1676 64.0103 23.5966V13.8295ZM69.8846 26V16.1818H71.342V17.6648H71.4442C71.6232 17.179 71.9471 16.7848 72.4158 16.4822C72.8846 16.1797 73.413 16.0284 74.0011 16.0284C74.1119 16.0284 74.2504 16.0305 74.4165 16.0348C74.5827 16.0391 74.7085 16.0455 74.7937 16.054V17.5881C74.7425 17.5753 74.6254 17.5561 74.4421 17.5305C74.2631 17.5007 74.0735 17.4858 73.8732 17.4858C73.396 17.4858 72.9698 17.5859 72.5948 17.7862C72.2241 17.9822 71.93 18.255 71.7127 18.6044C71.4996 18.9496 71.3931 19.3437 71.3931 19.7869V26H69.8846ZM79.4711 26.2301C78.8489 26.2301 78.2843 26.1129 77.7772 25.8786C77.2701 25.6399 76.8674 25.2969 76.5691 24.8494C76.2708 24.3977 76.1216 23.8523 76.1216 23.2131C76.1216 22.6506 76.2324 22.1946 76.454 21.8452C76.6756 21.4915 76.9718 21.2145 77.3425 21.0142C77.7132 20.8139 78.1223 20.6648 78.5698 20.5668C79.0215 20.4645 79.4753 20.3835 79.9313 20.3239C80.5279 20.2472 81.0115 20.1896 81.3823 20.1513C81.7573 20.1087 82.03 20.0384 82.2005 19.9403C82.3752 19.8423 82.4625 19.6719 82.4625 19.429V19.3778C82.4625 18.7472 82.29 18.2571 81.9448 17.9077C81.6039 17.5582 81.0861 17.3835 80.3915 17.3835C79.6713 17.3835 79.1067 17.5412 78.6976 17.8565C78.2885 18.1719 78.0009 18.5085 77.8347 18.8665L76.4029 18.3551C76.6586 17.7585 76.9995 17.294 77.4256 16.9616C77.856 16.625 78.3248 16.3906 78.8319 16.2585C79.3432 16.1222 79.8461 16.054 80.3404 16.054C80.6557 16.054 81.0179 16.0923 81.427 16.169C81.8404 16.2415 82.2388 16.3928 82.6223 16.6229C83.0101 16.853 83.3319 17.2003 83.5875 17.6648C83.8432 18.1293 83.9711 18.7514 83.9711 19.5312V26H82.4625V24.6705H82.3858C82.2836 24.8835 82.1131 25.1115 81.8745 25.3544C81.6358 25.5973 81.3184 25.804 80.9221 25.9744C80.5257 26.1449 80.0421 26.2301 79.4711 26.2301ZM79.7012 24.875C80.2978 24.875 80.8006 24.7578 81.2097 24.5234C81.623 24.2891 81.9341 23.9865 82.1429 23.6158C82.356 23.245 82.4625 22.8551 82.4625 22.446V21.0653C82.3986 21.142 82.258 21.2124 82.0407 21.2763C81.8276 21.3359 81.5804 21.3892 81.2992 21.4361C81.0222 21.4787 80.7516 21.517 80.4874 21.5511C80.2275 21.581 80.0165 21.6065 79.8546 21.6278C79.4625 21.679 79.0961 21.7621 78.7551 21.8771C78.4185 21.9879 78.1458 22.1562 77.937 22.3821C77.7324 22.6037 77.6301 22.9062 77.6301 23.2898C77.6301 23.8139 77.824 24.2102 78.2118 24.4787C78.6039 24.7429 79.1003 24.875 79.7012 24.875ZM86.7244 26V16.1818H88.1818V17.6648H88.2841C88.4631 17.179 88.7869 16.7848 89.2557 16.4822C89.7244 16.1797 90.2528 16.0284 90.8409 16.0284C90.9517 16.0284 91.0902 16.0305 91.2564 16.0348C91.4226 16.0391 91.5483 16.0455 91.6335 16.054V17.5881C91.5824 17.5753 91.4652 17.5561 91.282 17.5305C91.103 17.5007 90.9134 17.4858 90.7131 17.4858C90.2358 17.4858 89.8097 17.5859 89.4347 17.7862C89.0639 17.9822 88.7699 18.255 88.5526 18.6044C88.3395 18.9496 88.233 19.3437 88.233 19.7869V26H86.7244Z" fill="white"/>
</svg>
