<svg width="16" height="14" viewBox="0 0 16 14" fill="none" xmlns="http://www.w3.org/2000/svg">
<path d="M15.2384 7.54057C14.9012 7.54057 14.6276 7.29839 14.6276 7C14.6276 6.70161 14.9012 6.45943 15.2384 6.45943H15.8182C15.5201 3.01637 12.4101 0.263797 8.51986 0V0.513179C8.51986 0.811573 8.24624 1.05375 7.90909 1.05375C7.57194 1.05375 7.29832 0.811573 7.29832 0.513179V0C3.40811 0.263797 0.298057 3.01637 0 6.45943H0.579826C0.916972 6.45943 1.1906 6.70161 1.1906 7C1.1906 7.29839 0.916972 7.54057 0.579826 7.54057H0C0.298057 10.9836 3.40811 13.7362 7.29832 14V13.4868C7.29832 13.1884 7.57194 12.9463 7.90909 12.9463C8.24624 12.9463 8.51986 13.1884 8.51986 13.4868V14C12.4101 13.7362 15.5201 10.9836 15.8182 7.54057H15.2384ZM10.7838 9.54428C10.6649 9.64951 10.5085 9.70284 10.3522 9.70284C10.1958 9.70284 10.0395 9.65023 9.92057 9.54428L7.47748 7.382C7.36265 7.28037 7.29832 7.14271 7.29832 7V3.39621C7.29832 3.09782 7.57194 2.85564 7.90909 2.85564C8.24624 2.85564 8.51986 3.09782 8.51986 3.39621V6.77584L10.7838 8.77955C11.0224 8.99073 11.0224 9.33309 10.7838 9.54428Z" fill="#111111"/>
</svg>
