<svg width="20" height="20" viewBox="0 0 20 20" fill="none" xmlns="http://www.w3.org/2000/svg">
<path d="M10.3046 19.26C10.5104 19.7062 10.9568 20.0001 11.4582 20.0001C12.4933 20.0001 13.3101 19.7012 13.7418 18.9231C13.9298 18.5843 14.0029 18.2207 14.0363 17.9024C14.0687 17.5939 14.0687 17.2657 14.0687 16.9763L14.0686 14.1667H16.6802C18.2115 14.1667 19.3672 12.7937 19.1374 11.2877L17.9933 3.78764C17.8079 2.57272 16.7686 1.66675 15.536 1.66675H6.6665V12.5001H6.98095L10.3046 19.26Z" fill="#F83030"/>
<path d="M5.00016 12.5001H3.31951C1.93992 12.5001 0.833496 11.3742 0.833496 10.0001V4.16675C0.833496 2.79267 1.93992 1.66675 3.31951 1.66675H5.00016V12.5001Z" fill="#F83030"/>
</svg>
