<svg width="25" height="25" viewBox="0 0 25 25" fill="none" xmlns="http://www.w3.org/2000/svg">
<path d="M15.9419 6.26654C16.0976 6.35643 16.2492 6.45183 16.3965 6.55253L17.4371 5.95177C18.2741 5.46852 19.3444 5.7553 19.8276 6.59232L21.0943 8.78625C21.5776 9.62326 21.2908 10.6935 20.4538 11.1768L19.4135 11.7774C19.4413 12.1348 19.4417 12.4939 19.4143 12.8516L20.4538 13.4518C21.2908 13.935 21.5776 15.0053 21.0943 15.8423L19.8276 18.0362C19.3444 18.8733 18.2741 19.16 17.4371 18.6768L16.3976 18.0767C16.1015 18.2792 15.7903 18.4585 15.4669 18.6131L15.4669 19.8143C15.4669 20.7808 14.6834 21.5643 13.7169 21.5643L11.1836 21.5643C10.2171 21.5643 9.43357 20.7808 9.43357 19.8143L9.43357 18.6128C9.27269 18.5355 9.11427 18.4519 8.95857 18.362C8.80287 18.2721 8.65125 18.1767 8.50392 18.076L7.46338 18.6768C6.62636 19.16 5.55608 18.8733 5.07283 18.0362L3.80616 15.8423C3.32292 15.0053 3.6097 13.935 4.44671 13.4518L5.48698 12.8512C5.45913 12.4938 5.45878 12.1346 5.48616 11.7769L4.44671 11.1768C3.6097 10.6935 3.32292 9.62326 3.80616 8.78625L5.07283 6.59231C5.55608 5.7553 6.62636 5.46852 7.46338 5.95177L8.50283 6.5519C8.79893 6.34933 9.11014 6.17006 9.43357 6.01548L9.43357 4.81428C9.43357 3.84778 10.2171 3.06428 11.1836 3.06428L13.7169 3.06428C14.6834 3.06428 15.4669 3.84778 15.4669 4.81428L15.4669 6.0158C15.6278 6.09304 15.7862 6.17664 15.9419 6.26654ZM13.9669 4.81428C13.9669 4.67621 13.855 4.56428 13.7169 4.56428L11.1836 4.56428C11.0455 4.56428 10.9336 4.67621 10.9336 4.81428L10.9336 7.02013L10.4558 7.20626C9.93889 7.40767 9.45519 7.68598 9.02195 8.03267L8.62198 8.35274L6.71338 7.25081C6.5938 7.18177 6.4409 7.22274 6.37187 7.34231L5.1052 9.53625C5.03617 9.65582 5.07714 9.80872 5.19671 9.87775L7.10531 10.9797L7.02811 11.4861C6.94449 12.0347 6.94532 12.5927 7.02936 13.1411L7.10703 13.6479L5.19671 14.7508C5.07714 14.8198 5.03617 14.9727 5.1052 15.0923L6.37187 17.2862C6.4409 17.4058 6.5938 17.4468 6.71338 17.3778L8.62224 16.2757L9.02209 16.595C9.2373 16.7668 9.46647 16.9232 9.70857 17.063C9.95066 17.2028 10.2007 17.323 10.4571 17.4235L10.9336 17.6101L10.9336 19.8143C10.9336 19.9524 11.0455 20.0643 11.1836 20.0643L13.7169 20.0643C13.855 20.0643 13.9669 19.9524 13.9669 19.8143L13.9669 17.6084L14.4446 17.4223C14.9616 17.2209 15.4453 16.9426 15.8785 16.5959L16.2785 16.2758L18.1871 17.3778C18.3067 17.4468 18.4596 17.4058 18.5286 17.2862L19.7953 15.0923C19.8643 14.9727 19.8233 14.8198 19.7038 14.7508L17.7952 13.6489L17.8724 13.1425C17.956 12.5939 17.9551 12.0359 17.8711 11.4875L17.7934 10.9807L19.7038 9.87775C19.8233 9.80872 19.8643 9.65582 19.7953 9.53625L18.5286 7.34232C18.4596 7.22274 18.3067 7.18177 18.1871 7.25081L16.2782 8.35289L15.8784 8.0336C15.6632 7.86174 15.434 7.70535 15.1919 7.56557C14.9498 7.4258 14.6998 7.30553 14.4433 7.20508L13.9669 7.01844L13.9669 4.81428Z" fill="white"/>
<path d="M10.942 14.9267C12.3849 15.7597 14.2298 15.2654 15.0629 13.8225C15.8959 12.3797 15.4016 10.5347 13.9587 9.70169C12.5159 8.86866 10.6709 9.36302 9.83786 10.8059C9.00483 12.2487 9.49919 14.0937 10.942 14.9267ZM11.692 13.6277C10.9666 13.2089 10.7181 12.2813 11.1369 11.5559C11.5557 10.8305 12.4833 10.5819 13.2087 11.0007C13.9341 11.4195 14.1827 12.3471 13.7638 13.0725C13.345 13.7979 12.4174 14.0465 11.692 13.6277Z" fill="white"/>
</svg>
