<?xml version="1.0" encoding="UTF-8" standalone="no"?>
<svg
   width="38"
   height="39"
   viewBox="0 0 38 39"
   fill="none"
   version="1.1"
   id="svg1"
   xmlns="http://www.w3.org/2000/svg"
   xmlns:svg="http://www.w3.org/2000/svg">
  <defs
     id="defs1" />
  <path
     fill-rule="evenodd"
     clip-rule="evenodd"
     d="M 19,0.380859 C 8.48916,0.380859 0,8.95787 0,19.4992 0,24.2041 1.69097,28.5174 4.49618,31.8498 7.97655,35.9843 13.1812,38.6176 19,38.6176 c 5.8188,0 11.0235,-2.6333 14.5038,-6.7678 C 36.309,28.5174 38,24.2041 38,19.4992 38,8.95787 29.5108,0.380859 19,0.380859 Z M 3.02273,19.4992 C 3.02273,10.5839 10.1934,3.38824 19,3.38824 c 8.8066,0 15.9773,7.19566 15.9773,16.11096 0,3.3241 -0.997,6.4094 -2.705,8.9727 -0.7855,-0.8754 -1.9038,-2.0464 -3.2324,-3.2222 -1.3246,-1.1723 -2.8895,-2.3772 -4.5684,-3.2955 -0.1777,-0.0972 -0.3577,-0.1917 -0.5399,-0.2832 1.8614,-1.4551 3.057,-3.7153 3.057,-6.2532 0,-4.3896 -3.5766,-7.94811 -7.9886,-7.94811 -4.412,0 -7.9886,3.55851 -7.9886,7.94811 0,2.5379 1.1956,4.7981 3.057,6.2532 -0.1822,0.0915 -0.3622,0.186 -0.5399,0.2832 -1.6789,0.9183 -3.2438,2.1232 -4.5684,3.2955 C 7.63152,26.4255 6.51316,27.5965 5.72772,28.4719 4.01967,25.9086 3.02273,22.8233 3.02273,19.4992 Z"
     fill="#BEBEBE"
     id="path1"
     style="fill:#4b9eeb;fill-opacity:1" />
</svg>
