<?xml version="1.0" encoding="UTF-8" standalone="no"?>
<!-- Svg Vector Icons : http://www.onlinewebfonts.com/icon -->

<svg
   version="1.1"
   x="0px"
   y="0px"
   viewBox="0 0 236 206.50034"
   enable-background="new 0 0 256 256"
   xml:space="preserve"
   id="svg2"
   width="236"
   height="206.50034"
   xmlns="http://www.w3.org/2000/svg"
   xmlns:svg="http://www.w3.org/2000/svg"><defs
   id="defs2" />
<metadata
   id="metadata1"> Svg Vector Icons : http://www.onlinewebfonts.com/icon </metadata>
<path
   fill="#bebebe"
   d="M 236,84.2 C 236,37.9 222.4,0.3 205.7,0 c 0.1,0 0.1,0 0.2,0 h -19.1 c 0,0 -44.9,33.7 -109.5,47 -2,10.5 -3.2,22.9 -3.2,37.2 0,14.3 1.3,26.8 3.2,37.2 64.6,13.2 109.5,47 109.5,47 h 19.1 c -0.1,0 -0.1,0 -0.2,0 16.7,-0.3 30.3,-37.9 30.3,-84.2 z m -36.7,71.5 c -2.2,0 -4.5,-2.2 -5.7,-3.6 -2.9,-3.3 -5.7,-8.3 -8.1,-14.6 -5.4,-14.1 -8.3,-33 -8.3,-53.3 0,-20.2 3,-39.2 8.3,-53.3 2.4,-6.3 5.2,-11.4 8.1,-14.6 1.2,-1.3 3.5,-3.6 5.7,-3.6 2.2,0 4.5,2.2 5.7,3.6 2.9,3.3 5.7,8.3 8.1,14.6 5.4,14.1 8.3,33 8.3,53.3 0,20.2 -3,39.2 -8.3,53.3 -2.4,6.3 -5.2,11.3 -8.1,14.6 -1.2,1.3 -3.5,3.6 -5.7,3.6 z M 58,84.2 c 0,-12 0.9,-23.6 2.6,-34.4 -10.9,1.5 -20.5,2.4 -32.3,2.4 -15.5,0 -15.5,0 -15.5,0 L 0,74.1 v 20.3 l 12.8,21.8 c 0,0 0,0 15.5,0 11.8,0 21.4,0.9 32.3,2.4 C 58.9,107.8 58,96.2 58,84.2 Z m 26.8,49.1 -29.5,-5.7 18.9,74.1 c 1,3.8 4.8,5.8 8.5,4.3 L 110,195.1 c 3.7,-1.5 5.2,-5.5 3.3,-9 z m 114.5,-21.6 c -0.8,0 -1.7,-0.9 -2.2,-1.4 -1.1,-1.3 -2.2,-3.2 -3.1,-5.6 -2.1,-5.4 -3.2,-12.7 -3.2,-20.5 0,-7.8 1.1,-15.1 3.2,-20.5 0.9,-2.4 2,-4.4 3.1,-5.6 0.5,-0.5 1.4,-1.4 2.2,-1.4 0.8,0 1.7,0.9 2.2,1.4 1.1,1.3 2.2,3.2 3.1,5.6 2.1,5.4 3.2,12.7 3.2,20.5 0,7.8 -1.1,15.1 -3.2,20.5 -0.9,2.4 -2,4.4 -3.1,5.6 -0.4,0.6 -1.4,1.4 -2.2,1.4 z"
   id="path1" />
</svg>
