<svg width="38" height="38" viewBox="0 0 38 38" fill="none" xmlns="http://www.w3.org/2000/svg">
<path d="M27.3804 22.6303C26.7621 23.2486 26.7621 24.2511 27.3804 24.8694C27.9987 25.4877 29.0013 25.4877 29.6196 24.8694L34.2318 20.2572C34.2556 20.2334 34.2787 20.209 34.3009 20.1842C34.6275 19.8941 34.8333 19.471 34.8333 18.9998C34.8333 18.5286 34.6275 18.1056 34.3009 17.8155C34.2787 17.7906 34.2556 17.7663 34.2318 17.7425L29.6196 13.1302C29.0013 12.5119 27.9987 12.5119 27.3804 13.1302C26.7621 13.7486 26.7621 14.7511 27.3804 15.3694L29.4275 17.4165H20.5833C19.7089 17.4165 19 18.1254 19 18.9998C19 19.8743 19.7089 20.5832 20.5833 20.5832H29.4275L27.3804 22.6303Z" fill="#CCCCCC"/>
<path d="M7.91675 3.1665C5.2934 3.1665 3.16675 5.29316 3.16675 7.9165V30.0832C3.16675 32.7066 5.2934 34.8332 7.91675 34.8332H22.9584C25.1445 34.8332 26.9167 33.0609 26.9167 30.8748V26.4931C26.6823 26.3576 26.4615 26.1896 26.2609 25.989C25.2248 24.9529 25.0568 23.3776 25.7568 22.1665H20.5834C18.8345 22.1665 17.4167 20.7488 17.4167 18.9998C17.4167 17.2509 18.8345 15.8332 20.5834 15.8332H25.7568C25.0568 14.6221 25.2248 13.0467 26.2609 12.0107C26.4615 11.8101 26.6823 11.642 26.9167 11.5065V7.12484C26.9167 4.93871 25.1445 3.1665 22.9584 3.1665H7.91675Z" fill="#CCCCCC"/>
</svg>
