<?xml version="1.0" encoding="UTF-8" standalone="no"?>
<svg
   width="32"
   height="33"
   viewBox="0 0 32 33"
   fill="none"
   version="1.1"
   id="svg1"
   xmlns="http://www.w3.org/2000/svg"
   xmlns:svg="http://www.w3.org/2000/svg">
  <defs
     id="defs1" />
  <path
     id="Ícone Ocorrências"
     fill-rule="evenodd"
     clip-rule="evenodd"
     d="M 22.7282,7.98525 C 22.9165,7.94863 23.1016,7.91094 23.2883,7.87167 25.0615,7.518 26.7824,6.94175 28.4097,6.15676 28.0672,5.73957 27.7045,5.34008 27.3214,4.95829 25.0824,2.7268 22.2269,1.20814 19.1182,0.595376 19.917,1.40533 20.5779,2.33933 21.075,3.36068 c 0.7271,1.47354 1.2815,3.0252 1.6532,4.62457 z M 3.59242,6.15676 C 5.21971,6.94175 6.94059,7.518 8.71379,7.87167 8.89837,7.91094 9.08509,7.94881 9.27394,7.98525 9.56966,6.74089 9.96846,5.52304 10.4663,4.34419 11.0216,2.95025 11.8438,1.67689 12.8872,0.594845 9.77715,1.20708 6.92051,2.72598 4.68071,4.95829 4.29804,5.33938 3.93527,5.73887 3.59242,6.15676 Z M 15.4382,8.59829 V 0.355469 C 13.9408,0.685075 12.5612,2.31453 11.4996,4.78154 11.0347,5.88168 10.6609,7.01776 10.382,8.17845 12.0555,8.43552 13.7451,8.57528 15.4382,8.5967 Z M 16.5639,0.357061 V 8.5967 C 18.2571,8.57528 19.9467,8.43552 21.6202,8.17845 21.27,6.6867 20.751,5.23925 20.0731,3.86384 19.0782,1.91486 17.864,0.643145 16.5639,0.355469 Z M 9.46866,15.6628 H 15.4382 V 9.71821 C 13.6626,9.69633 11.8909,9.54786 10.1366,9.27396 9.71765,11.3788 9.49478,13.5177 9.47079,15.6633 Z M 0,15.6628 H 8.34569 C 8.37027,13.4527 8.59939,11.2496 9.03014,9.08129 8.84556,9.0452 8.66204,9.00751 8.48119,8.9693 6.54506,8.58401 4.66932,7.94319 2.90371,7.06384 1.11553,9.58729 0.107047,12.5754 0.00213375,15.6612 Z m 10.136,7.5093 c 1.7543,-0.2739 3.5261,-0.4224 5.3017,-0.4442 V 16.7833 H 9.47132 c 0.02356,2.1456 0.24625,4.2845 0.66528,6.3893 z M 2.90371,25.3828 C 4.66855,24.5033 6.5436,23.8625 8.47906,23.4773 8.65991,23.4386 8.84342,23.4014 9.02801,23.3653 8.59726,21.197 8.36814,18.9939 8.34356,16.7838 H 0.00213375 C 0.106222,19.871 1.11474,22.8608 2.90371,25.3854 Z m 6.37023,-0.9257 c -0.18814,0.0354 -0.37486,0.0732 -0.56015,0.1136 -1.7732,0.3536 -3.49408,0.9299 -5.12137,1.7149 2.35487,2.8718 5.64122,4.8383 9.29478,5.5619 C 11.8439,30.7654 11.0218,29.492 10.4663,28.0982 9.96846,26.9193 9.56966,25.7015 9.27394,24.4571 Z m 6.16426,-0.6115 c -1.6931,0.0215 -3.3827,0.1612 -5.0562,0.4183 0.2789,1.1607 0.6527,2.2968 1.1176,3.3969 1.0616,2.467 2.4412,4.0965 3.9386,4.4261 z m 6.182,0.4183 c -1.6735,-0.2571 -3.3631,-0.3968 -5.0563,-0.4183 v 8.2407 c 1.2136,-0.2691 2.3537,-1.3975 3.3107,-3.1352 0.7816,-1.4814 1.3682,-3.0568 1.7456,-4.6872 z m 6.7895,2.0217 c -1.6273,-0.785 -3.3482,-1.3613 -5.1214,-1.7149 -0.1845,-0.0393 -0.3714,-0.0772 -0.5606,-0.1136 -0.4008,1.7507 -1.0285,3.4423 -1.8672,5.0322 -0.4599,0.8668 -1.0461,1.6611 -1.7397,2.3571 3.6513,-0.7245 6.9354,-2.6905 9.2889,-5.5608 z M 23.5012,12.7181 c 0.7571,-0.1356 1.537,-0.0643 2.2566,0.2065 0.4726,0.1889 0.9019,0.4709 1.2622,0.829 0.5263,0.5125 0.866,1.1848 0.9656,1.9108 H 32 C 31.8959,12.5771 30.8874,9.58743 29.0984,7.06278 27.3333,7.94086 25.4583,8.58059 23.5231,8.96505 23.3424,9.00397 23.1592,9.0413 22.9736,9.07704 c 0.2427,1.20276 0.4195,2.41766 0.5297,3.63946 z m -2.9341,2.9447 c 0.0995,-0.7261 0.4395,-1.3984 0.9661,-1.9108 0.2585,-0.2575 0.5534,-0.476 0.8754,-0.6486 -0.1054,-1.2865 -0.2862,-2.5659 -0.5414,-3.83157 -1.7545,0.27389 -3.5265,0.42235 -5.3023,0.44426 v 5.94461 z m 1.7439,4.6755 -0.8535,-1.3269 c -0.4471,-0.6737 -0.7473,-1.4331 -0.8813,-2.2292 h -4.0123 v 5.9446 c 1.7758,0.0219 3.5477,0.1704 5.3022,0.4442 0.184,-0.9023 0.3334,-1.8486 0.4438,-2.8337 z m 4.7848,-1.3269 -2.3415,3.6437 c -0.0441,0.0721 -0.1044,0.1331 -0.176,0.1784 -0.1254,0.0795 -0.2773,0.1062 -0.4225,0.0742 -0.1452,-0.0319 -0.2716,-0.1199 -0.3516,-0.2446 l -0.5537,-0.8625 c -0.0818,0.535 -0.1745,1.0573 -0.278,1.5668 0.185,0.0354 0.3681,0.0727 0.5495,0.112 1.9362,0.3851 3.812,1.0259 5.5775,1.9055 1.7892,-2.5253 2.7974,-5.5158 2.9005,-8.6038 h -4.024 c -0.1342,0.7961 -0.4344,1.5555 -0.8813,2.2293 z m -2.8189,2.3168 1.8735,-2.916 c 0.4536,-0.659 0.7123,-1.4313 0.7469,-2.2292 0.0051,-0.3039 -0.0518,-0.6056 -0.1674,-0.8868 -0.1155,-0.2813 -0.2872,-0.5363 -0.5048,-0.7496 -0.252,-0.252 -0.5527,-0.4506 -0.8839,-0.5838 -0.3351,-0.1345 -0.694,-0.2008 -1.0553,-0.1948 h -0.016 c -0.3614,-0.006 -0.7204,0.0602 -1.0557,0.1948 -0.3312,0.1333 -0.6319,0.3319 -0.884,0.5838 -0.2174,0.2128 -0.3893,0.4672 -0.5052,0.7479 -0.1159,0.2807 -0.1734,0.5818 -0.1691,0.8853 0.0345,0.7979 0.2933,1.5702 0.7469,2.2292 l 1.8735,2.916 z m 0.2902,-5.2546 C 24.5,16.0068 24.4117,15.9652 24.3173,15.9559 c -0.0945,-0.0093 -0.1892,0.0143 -0.2682,0.0667 -0.0789,0.0525 -0.1371,0.1305 -0.1647,0.2208 -0.0276,0.0904 -0.0229,0.1874 0.0134,0.2747 0.0362,0.0873 0.1018,0.1593 0.1855,0.2039 0.0837,0.0445 0.1803,0.0588 0.2734,0.0405 0.0931,-0.0184 0.1769,-0.0683 0.2371,-0.1413 0.0603,-0.0729 0.0933,-0.1644 0.0933,-0.2588 10e-5,-0.0537 -0.0104,-0.1068 -0.031,-0.1563 -0.0206,-0.0496 -0.0509,-0.0946 -0.089,-0.1325 z m -0.2902,-1.2388 c -0.3552,0 -0.6995,0.1225 -0.9741,0.3467 -0.2745,0.2242 -0.4625,0.5362 -0.5318,0.8828 -0.0693,0.3466 -0.0157,0.7064 0.1517,1.0181 0.1675,0.3117 0.4384,0.556 0.7665,0.6912 0.3282,0.1353 0.6933,0.1531 1.0333,0.0505 0.3399,-0.1025 0.6335,-0.3192 0.8309,-0.613 0.1973,-0.2939 0.2862,-0.6467 0.2514,-0.9984 -0.0348,-0.3517 -0.1911,-0.6806 -0.4423,-0.9305 -0.1424,-0.142 -0.3116,-0.2547 -0.4979,-0.3315 -0.1863,-0.0768 -0.3861,-0.1162 -0.5877,-0.1159 z"
     fill="#BEBEBE"
     style="fill:#4b9eeb;fill-opacity:1" />
</svg>
