<?xml version="1.0" encoding="UTF-8" standalone="no"?>
<svg
   width="38"
   height="30"
   viewBox="0 0 38 30"
   fill="none"
   version="1.1"
   id="svg1"
   xmlns="http://www.w3.org/2000/svg"
   xmlns:svg="http://www.w3.org/2000/svg">
  <defs
     id="defs1" />
  <path
     fill-rule="evenodd"
     clip-rule="evenodd"
     d="M 31.6584,1.7154 C 31.0063,1.06623 30.1753,0.624059 29.2706,0.444815 28.3659,0.265571 27.428,0.357309 26.5757,0.708424 25.7234,1.05954 24.9948,1.65426 24.4823,2.41736 c -0.5126,0.7631 -0.7862,1.6603 -0.7862,2.57811 0,0.91782 0.2736,1.81502 0.7862,2.57812 0.5125,0.7631 1.2411,1.35782 2.0934,1.70893 0.8523,0.35112 1.7902,0.44285 2.6949,0.26361 0.9047,-0.17924 1.7357,-0.62141 2.3878,-1.27059 0.874,-0.87015 1.3649,-2.04994 1.3649,-3.28007 0,-1.23012 -0.4909,-2.40991 -1.3649,-3.28007 z M 17.0623,2.43745 C 16.1935,1.57308 15.0867,0.984429 13.8817,0.745933 12.6767,0.507436 11.4277,0.629809 10.2926,1.09757 9.15749,1.56534 8.18731,2.35749 7.50473,3.37385 6.82214,4.39021 6.45781,5.58513 6.45781,6.8075 c 0,1.22236 0.36433,2.41728 1.04692,3.4336 0.68258,1.0164 1.65276,1.8085 2.78787,2.2763 1.1351,0.4678 2.3841,0.5902 3.5891,0.3517 1.205,-0.2385 2.3118,-0.8272 3.1806,-1.6916 1.1648,-1.159 1.8193,-2.73093 1.8193,-4.37 0,-1.63908 -0.6545,-3.21102 -1.8193,-4.37005 z m 2.863,11.96755 c 1.7555,0.6428 3.2924,1.7668 4.4329,3.2422 1.1405,1.4753 1.838,3.2416 2.0119,5.0947 2.0916,0.2999 4.2242,0.1251 6.2383,-0.5114 2.014,-0.6364 3.8572,-1.7179 5.3916,-3.1635 v -0.8714 c -0.0042,-1.7534 -0.7062,-3.4337 -1.9523,-4.6736 -1.2461,-1.2399 -2.935,-1.9383 -4.6973,-1.9427 h -5.9802 c -1.0688,9e-4 -2.1216,0.2581 -3.0692,0.75 -0.9476,0.4919 -1.7619,1.2039 -2.374,2.0757 z M 0,24.8179 V 23.6181 C 0.0065202,21.3007 0.934441,19.08 2.58111,17.4411 4.22778,15.8021 6.45939,14.878 8.78858,14.8706 h 7.76272 c 2.3293,0.0061 4.5615,0.9294 6.2086,2.5681 1.6471,1.6388 2.5752,3.8597 2.5812,6.1772 v 1.199 c -3.416,3.237 -7.9525,5.0428 -12.6699,5.0433 C 7.95372,29.8588 3.41677,28.0541 0,24.8179 Z"
     fill="#BEBEBE"
     id="path1"
     style="fill:#4b9eeb;fill-opacity:1" />
</svg>
