<svg width="38" height="30" viewBox="0 0 38 30" fill="none" xmlns="http://www.w3.org/2000/svg">
<path fill-rule="evenodd" clip-rule="evenodd" d="M31.6584 1.7154C31.0063 1.06623 30.1753 0.624059 29.2706 0.444815C28.3659 0.265571 27.428 0.357309 26.5757 0.708424C25.7234 1.05954 24.9948 1.65426 24.4823 2.41736C23.9697 3.18046 23.6961 4.07766 23.6961 4.99547C23.6961 5.91329 23.9697 6.81049 24.4823 7.57359C24.9948 8.33669 25.7234 8.93141 26.5757 9.28252C27.428 9.63364 28.3659 9.72537 29.2706 9.54613C30.1753 9.36689 31.0063 8.92472 31.6584 8.27554C32.5324 7.40539 33.0233 6.2256 33.0233 4.99547C33.0233 3.76535 32.5324 2.58556 31.6584 1.7154ZM17.0623 2.43745C16.1935 1.57308 15.0867 0.984429 13.8817 0.745933C12.6767 0.507436 11.4277 0.629809 10.2926 1.09757C9.15749 1.56534 8.18731 2.35749 7.50473 3.37385C6.82214 4.39021 6.45781 5.58513 6.45781 6.8075C6.45781 8.02986 6.82214 9.22478 7.50473 10.2411C8.18731 11.2575 9.15749 12.0496 10.2926 12.5174C11.4277 12.9852 12.6767 13.1076 13.8817 12.8691C15.0867 12.6306 16.1935 12.0419 17.0623 11.1775C18.2271 10.0185 18.8816 8.44657 18.8816 6.8075C18.8816 5.16842 18.2271 3.59648 17.0623 2.43745ZM19.9253 14.405C21.6808 15.0478 23.2177 16.1718 24.3582 17.6472C25.4987 19.1225 26.1962 20.8888 26.3701 22.7419C28.4617 23.0418 30.5943 22.867 32.6084 22.2305C34.6224 21.5941 36.4656 20.5126 38 19.067V18.1956C37.9958 16.4422 37.2938 14.7619 36.0477 13.522C34.8016 12.2821 33.1127 11.5837 31.3504 11.5793H25.3702C24.3014 11.5802 23.2486 11.8374 22.301 12.3293C21.3534 12.8212 20.5391 13.5332 19.927 14.405H19.9253ZM0 24.8179V23.6181C0.0065202 21.3007 0.934441 19.08 2.58111 17.4411C4.22778 15.8021 6.45939 14.878 8.78858 14.8706H16.5513C18.8806 14.8767 21.1128 15.8 22.7599 17.4387C24.407 19.0775 25.3351 21.2984 25.3411 23.6159V24.8149C21.9251 28.0519 17.3886 29.8577 12.6712 29.8582C7.95372 29.8588 3.41677 28.0541 0 24.8179Z" fill="#BEBEBE"/>
</svg>
