<?xml version="1.0" encoding="UTF-8" standalone="no"?>
<svg
   width="24"
   height="26"
   viewBox="0 0 24 26"
   fill="none"
   version="1.1"
   id="svg1"
   xmlns="http://www.w3.org/2000/svg"
   xmlns:svg="http://www.w3.org/2000/svg">
  <defs
     id="defs1" />
  <path
     d="M 3.33688,25.1376 H 7.9543 c 0.73842,0 1.33663,-0.5952 1.33663,-1.3298 v -5.7534 c 0,-1.4879 1.21197,-2.6937 2.70747,-2.6937 1.4956,0 2.7076,1.2058 2.7076,2.6937 v 5.7534 c 0,0.7346 0.5982,1.3298 1.3366,1.3298 H 20.66 c 1.8445,0 3.34,-1.4879 3.34,-3.323 V 9.88633 C 24,8.81998 23.4859,7.81873 22.6166,7.19566 L 13.9551,0.968052 c -1.1684,-0.83696 -2.7449,-0.83696 -3.9133,0 L 1.38336,7.19566 C 0.514086,7.81873 0,8.81998 0,9.88633 V 21.8177 c 0,1.8351 1.49552,3.323 3.34,3.323 z"
     fill="#BEBEBE"
     id="path1"
     style="fill:#4b9eeb;fill-opacity:1" />
</svg>
