<svg width="16" height="20" viewBox="0 0 16 20" fill="none" xmlns="http://www.w3.org/2000/svg">
<path fill-rule="evenodd" clip-rule="evenodd" d="M9.58661 18.9448C9.22833 19.46 8.59323 19.7743 7.90909 19.7743C7.22495 19.7743 6.58985 19.4607 6.23157 18.9448C5.04046 17.2746 3.05528 14.357 1.65696 11.6221C0.679392 9.7118 0 7.8792 0 6.5821C0 2.9631 3.52983 0 7.90909 0C12.2884 0 15.8182 2.9631 15.8182 6.5821C15.8182 7.8792 15.1388 9.7118 14.1612 11.6221C12.7629 14.357 10.7777 17.2739 9.58661 18.9448ZM7.94864 3.6575C5.78787 3.6575 4.03364 5.2101 4.03364 7.1225C4.03364 9.0349 5.78787 10.5875 7.94864 10.5875C10.1094 10.5875 11.8636 9.0349 11.8636 7.1225C11.8636 5.2101 10.1094 3.6575 7.94864 3.6575ZM7.94864 5.0575C9.23624 5.0575 10.2818 5.9829 10.2818 7.1225C10.2818 8.2621 9.23624 9.1875 7.94864 9.1875C6.66104 9.1875 5.61545 8.2621 5.61545 7.1225C5.61545 5.9829 6.66104 5.0575 7.94864 5.0575Z" fill="#111111"/>
</svg>
