<svg width="101" height="38" viewBox="0 0 101 38" fill="none" xmlns="http://www.w3.org/2000/svg">
<path d="M0 6C0 2.68629 2.68629 0 6 0H95C98.3137 0 101 2.68629 101 6V32C101 35.3137 98.3137 38 95 38H6C2.68629 38 0 35.3137 0 32V6Z" fill="#4B9EEB"/>
<path d="M26.4036 26V12.9091H34.3041V14.3153H27.9888V18.7386H33.895V20.1449H27.9888V24.5938H34.4064V26H26.4036ZM38.4653 20.0938V26H36.9568V16.1818H38.4142V17.7159H38.5421C38.7722 17.2173 39.1216 16.8168 39.5903 16.5142C40.0591 16.2074 40.6642 16.054 41.4057 16.054C42.0705 16.054 42.6521 16.1903 43.1507 16.4631C43.6493 16.7315 44.0371 17.1406 44.3141 17.6903C44.5911 18.2358 44.7296 18.9261 44.7296 19.7614V26H43.221V19.8636C43.221 19.0923 43.0207 18.4915 42.6202 18.0611C42.2196 17.6264 41.6699 17.4091 40.971 17.4091C40.4895 17.4091 40.0591 17.5135 39.6798 17.7223C39.3048 17.9311 39.0087 18.2358 38.7913 18.6364C38.574 19.0369 38.4653 19.5227 38.4653 20.0938ZM51.756 16.1818V17.4602H46.6679V16.1818H51.756ZM48.1509 13.8295H49.6594V23.1875C49.6594 23.6136 49.7212 23.9332 49.8448 24.1463C49.9726 24.3551 50.1346 24.4957 50.3306 24.5682C50.5309 24.6364 50.7418 24.6705 50.9634 24.6705C51.1296 24.6705 51.2659 24.6619 51.3725 24.6449C51.479 24.6236 51.5642 24.6065 51.6282 24.5938L51.935 25.9489C51.8327 25.9872 51.69 26.0256 51.5067 26.0639C51.3235 26.1065 51.0912 26.1278 50.81 26.1278C50.3838 26.1278 49.9662 26.0362 49.5571 25.853C49.1523 25.6697 48.8157 25.3906 48.5472 25.0156C48.283 24.6406 48.1509 24.1676 48.1509 23.5966V13.8295ZM54.0252 26V16.1818H55.4826V17.6648H55.5848C55.7638 17.179 56.0877 16.7848 56.5564 16.4822C57.0252 16.1797 57.5536 16.0284 58.1417 16.0284C58.2525 16.0284 58.3909 16.0305 58.5571 16.0348C58.7233 16.0391 58.849 16.0455 58.9343 16.054V17.5881C58.8831 17.5753 58.7659 17.5561 58.5827 17.5305C58.4037 17.5007 58.2141 17.4858 58.0138 17.4858C57.5365 17.4858 57.1104 17.5859 56.7354 17.7862C56.3647 17.9822 56.0706 18.255 55.8533 18.6044C55.6402 18.9496 55.5337 19.3437 55.5337 19.7869V26H54.0252ZM63.6117 26.2301C62.9895 26.2301 62.4249 26.1129 61.9178 25.8786C61.4107 25.6399 61.008 25.2969 60.7097 24.8494C60.4114 24.3977 60.2622 23.8523 60.2622 23.2131C60.2622 22.6506 60.373 22.1946 60.5946 21.8452C60.8162 21.4915 61.1124 21.2145 61.4831 21.0142C61.8538 20.8139 62.2629 20.6648 62.7104 20.5668C63.1621 20.4645 63.6159 20.3835 64.0719 20.3239C64.6685 20.2472 65.1521 20.1896 65.5229 20.1513C65.8979 20.1087 66.1706 20.0384 66.3411 19.9403C66.5158 19.8423 66.6031 19.6719 66.6031 19.429V19.3778C66.6031 18.7472 66.4305 18.2571 66.0854 17.9077C65.7445 17.5582 65.2267 17.3835 64.5321 17.3835C63.8119 17.3835 63.2473 17.5412 62.8382 17.8565C62.4291 18.1719 62.1415 18.5085 61.9753 18.8665L60.5435 18.3551C60.7992 17.7585 61.1401 17.294 61.5662 16.9616C61.9966 16.625 62.4653 16.3906 62.9724 16.2585C63.4838 16.1222 63.9867 16.054 64.481 16.054C64.7963 16.054 65.1585 16.0923 65.5676 16.169C65.981 16.2415 66.3794 16.3928 66.7629 16.6229C67.1507 16.853 67.4724 17.2003 67.7281 17.6648C67.9838 18.1293 68.1117 18.7514 68.1117 19.5312V26H66.6031V24.6705H66.5264C66.4242 24.8835 66.2537 25.1115 66.0151 25.3544C65.7764 25.5973 65.459 25.804 65.0626 25.9744C64.6663 26.1449 64.1827 26.2301 63.6117 26.2301ZM63.8418 24.875C64.4384 24.875 64.9412 24.7578 65.3503 24.5234C65.7636 24.2891 66.0747 23.9865 66.2835 23.6158C66.4966 23.245 66.6031 22.8551 66.6031 22.446V21.0653C66.5392 21.142 66.3986 21.2124 66.1813 21.2763C65.9682 21.3359 65.721 21.3892 65.4398 21.4361C65.1628 21.4787 64.8922 21.517 64.628 21.5511C64.368 21.581 64.1571 21.6065 63.9952 21.6278C63.6031 21.679 63.2367 21.7621 62.8957 21.8771C62.5591 21.9879 62.2864 22.1562 62.0776 22.3821C61.873 22.6037 61.7707 22.9062 61.7707 23.2898C61.7707 23.8139 61.9646 24.2102 62.3524 24.4787C62.7445 24.7429 63.2409 24.875 63.8418 24.875ZM70.865 26V16.1818H72.3224V17.6648H72.4247C72.6037 17.179 72.9275 16.7848 73.3963 16.4822C73.865 16.1797 74.3934 16.0284 74.9815 16.0284C75.0923 16.0284 75.2308 16.0305 75.397 16.0348C75.5632 16.0391 75.6889 16.0455 75.7741 16.054V17.5881C75.723 17.5753 75.6058 17.5561 75.4226 17.5305C75.2436 17.5007 75.0539 17.4858 74.8537 17.4858C74.3764 17.4858 73.9503 17.5859 73.5753 17.7862C73.2045 17.9822 72.9105 18.255 72.6932 18.6044C72.4801 18.9496 72.3735 19.3437 72.3735 19.7869V26H70.865Z" fill="white"/>
</svg>
