<svg width="32" height="33" viewBox="0 0 32 33" fill="none" xmlns="http://www.w3.org/2000/svg">
<path id="&#195;&#141;cone Ocorr&#195;&#170;ncias" fill-rule="evenodd" clip-rule="evenodd" d="M22.7282 7.98525C22.9165 7.94863 23.1016 7.91094 23.2883 7.87167C25.0615 7.518 26.7824 6.94175 28.4097 6.15676C28.0672 5.73957 27.7045 5.34008 27.3214 4.95829C25.0824 2.7268 22.2269 1.20814 19.1182 0.595376C19.917 1.40533 20.5779 2.33933 21.075 3.36068C21.8021 4.83422 22.3565 6.38588 22.7282 7.98525ZM3.59242 6.15676C5.21971 6.94175 6.94059 7.518 8.71379 7.87167C8.89837 7.91094 9.08509 7.94881 9.27394 7.98525C9.56966 6.74089 9.96846 5.52304 10.4663 4.34419C11.0216 2.95025 11.8438 1.67689 12.8872 0.594845C9.77715 1.20708 6.92051 2.72598 4.68071 4.95829C4.29804 5.33938 3.93527 5.73887 3.59242 6.15676ZM15.4382 8.59829V0.355469C13.9408 0.685075 12.5612 2.31453 11.4996 4.78154C11.0347 5.88168 10.6609 7.01776 10.382 8.17845C12.0555 8.43552 13.7451 8.57528 15.4382 8.5967V8.59829ZM16.5639 0.357061V8.5967C18.2571 8.57528 19.9467 8.43552 21.6202 8.17845C21.27 6.6867 20.751 5.23925 20.0731 3.86384C19.0782 1.91486 17.864 0.643145 16.5639 0.355469V0.357061ZM9.46866 15.6628H15.4382V9.71821C13.6626 9.69633 11.8909 9.54786 10.1366 9.27396C9.71765 11.3788 9.49478 13.5177 9.47079 15.6633L9.46866 15.6628ZM0 15.6628H8.34569C8.37027 13.4527 8.59939 11.2496 9.03014 9.08129C8.84556 9.0452 8.66204 9.00751 8.48119 8.9693C6.54506 8.58401 4.66932 7.94319 2.90371 7.06384C1.11553 9.58729 0.107047 12.5754 0.00213375 15.6612L0 15.6628ZM10.136 23.1721C11.8903 22.8982 13.6621 22.7497 15.4377 22.7279V16.7833H9.47132C9.49488 18.9289 9.71757 21.0678 10.1366 23.1726L10.136 23.1721ZM2.90371 25.3828C4.66855 24.5033 6.5436 23.8625 8.47906 23.4773C8.65991 23.4386 8.84342 23.4014 9.02801 23.3653C8.59726 21.197 8.36814 18.9939 8.34356 16.7838H0.00213375C0.106222 19.871 1.11474 22.8608 2.90371 25.3854V25.3828ZM9.27394 24.4571C9.0858 24.4925 8.89908 24.5303 8.71379 24.5707C6.94059 24.9243 5.21971 25.5006 3.59242 26.2856C5.94729 29.1574 9.23364 31.1239 12.8872 31.8475C11.8439 30.7654 11.0218 29.492 10.4663 28.0982C9.96846 26.9193 9.56966 25.7015 9.27394 24.4571ZM15.4382 23.8456C13.7451 23.8671 12.0555 24.0068 10.382 24.2639C10.6609 25.4246 11.0347 26.5607 11.4996 27.6608C12.5612 30.1278 13.9408 31.7573 15.4382 32.0869V23.8456ZM21.6202 24.2639C19.9467 24.0068 18.2571 23.8671 16.5639 23.8456V32.0863C17.7775 31.8172 18.9176 30.6888 19.8746 28.9511C20.6562 27.4697 21.2428 25.8943 21.6202 24.2639ZM28.4097 26.2856C26.7824 25.5006 25.0615 24.9243 23.2883 24.5707C23.1038 24.5314 22.9169 24.4935 22.7277 24.4571C22.3269 26.2078 21.6992 27.8994 20.8605 29.4893C20.4006 30.3561 19.8144 31.1504 19.1208 31.8464C22.7721 31.1219 26.0562 29.1559 28.4097 26.2856ZM23.5012 12.7181C24.2583 12.5825 25.0382 12.6538 25.7578 12.9246C26.2304 13.1135 26.6597 13.3955 27.02 13.7536C27.5463 14.2661 27.886 14.9384 27.9856 15.6644H32C31.8959 12.5771 30.8874 9.58743 29.0984 7.06278C27.3333 7.94086 25.4583 8.58059 23.5231 8.96505C23.3424 9.00397 23.1592 9.0413 22.9736 9.07704C23.2163 10.2798 23.3931 11.4947 23.5033 12.7165L23.5012 12.7181ZM20.5671 15.6628C20.6666 14.9367 21.0066 14.2644 21.5332 13.752C21.7917 13.4945 22.0866 13.276 22.4086 13.1034C22.3032 11.8169 22.1224 10.5375 21.8672 9.27183C20.1127 9.54572 18.3407 9.69418 16.5649 9.71609V15.6607L20.5671 15.6628ZM22.311 20.3383L21.4575 19.0114C21.0104 18.3377 20.7102 17.5783 20.5762 16.7822H16.5639V22.7268C18.3397 22.7487 20.1116 22.8972 21.8661 23.171C22.0501 22.2687 22.1995 21.3224 22.3099 20.3373L22.311 20.3383ZM27.0958 19.0114L24.7543 22.6551C24.7102 22.7272 24.6499 22.7882 24.5783 22.8335C24.4529 22.913 24.301 22.9397 24.1558 22.9077C24.0106 22.8758 23.8842 22.7878 23.8042 22.6631L23.2505 21.8006C23.1687 22.3356 23.076 22.8579 22.9725 23.3674C23.1575 23.4028 23.3406 23.4401 23.522 23.4794C25.4582 23.8645 27.334 24.5053 29.0995 25.3849C30.8887 22.8596 31.8969 19.8691 32 16.7811H27.976C27.8418 17.5772 27.5416 18.3366 27.0947 19.0104L27.0958 19.0114ZM24.2769 21.3282L26.1504 18.4122C26.604 17.7532 26.8627 16.9809 26.8973 16.183C26.9024 15.8791 26.8455 15.5774 26.7299 15.2962C26.6144 15.0149 26.4427 14.7599 26.2251 14.5466C25.9731 14.2946 25.6724 14.096 25.3412 13.9628C25.0061 13.8283 24.6472 13.762 24.2859 13.768H24.2699C23.9085 13.762 23.5495 13.8282 23.2142 13.9628C22.883 14.0961 22.5823 14.2947 22.3302 14.5466C22.1128 14.7594 21.9409 15.0138 21.825 15.2945C21.7091 15.5752 21.6516 15.8763 21.6559 16.1798C21.6904 16.9777 21.9492 17.75 22.4028 18.409L24.2763 21.325L24.2769 21.3282ZM24.5671 16.0736C24.5 16.0068 24.4117 15.9652 24.3173 15.9559C24.2228 15.9466 24.1281 15.9702 24.0491 16.0226C23.9702 16.0751 23.912 16.1531 23.8844 16.2434C23.8568 16.3338 23.8615 16.4308 23.8978 16.5181C23.934 16.6054 23.9996 16.6774 24.0833 16.722C24.167 16.7665 24.2636 16.7808 24.3567 16.7625C24.4498 16.7441 24.5336 16.6942 24.5938 16.6212C24.6541 16.5483 24.6871 16.4568 24.6871 16.3624C24.6872 16.3087 24.6767 16.2556 24.6561 16.2061C24.6355 16.1565 24.6052 16.1115 24.5671 16.0736ZM24.2769 14.8348C23.9217 14.8348 23.5774 14.9573 23.3028 15.1815C23.0283 15.4057 22.8403 15.7177 22.771 16.0643C22.7017 16.4109 22.7553 16.7707 22.9227 17.0824C23.0902 17.3941 23.3611 17.6384 23.6892 17.7736C24.0174 17.9089 24.3825 17.9267 24.7225 17.8241C25.0624 17.7216 25.356 17.5049 25.5534 17.2111C25.7507 16.9172 25.8396 16.5644 25.8048 16.2127C25.77 15.861 25.6137 15.5321 25.3625 15.2822C25.2201 15.1402 25.0509 15.0275 24.8646 14.9507C24.6783 14.8739 24.4785 14.8345 24.2769 14.8348Z" fill="#BEBEBE"/>
</svg>
