<svg width="38" height="39" viewBox="0 0 38 39" fill="none" xmlns="http://www.w3.org/2000/svg">
<path fill-rule="evenodd" clip-rule="evenodd" d="M19 0.380859C8.48916 0.380859 0 8.95787 0 19.4992C0 24.2041 1.69097 28.5174 4.49618 31.8498C7.97655 35.9843 13.1812 38.6176 19 38.6176C24.8188 38.6176 30.0235 35.9843 33.5038 31.8498C36.309 28.5174 38 24.2041 38 19.4992C38 8.95787 29.5108 0.380859 19 0.380859ZM3.02273 19.4992C3.02273 10.5839 10.1934 3.38824 19 3.38824C27.8066 3.38824 34.9773 10.5839 34.9773 19.4992C34.9773 22.8233 33.9803 25.9086 32.2723 28.4719C31.4868 27.5965 30.3685 26.4255 29.0399 25.2497C27.7153 24.0774 26.1504 22.8725 24.4715 21.9542C24.2938 21.857 24.1138 21.7625 23.9316 21.671C25.793 20.2159 26.9886 17.9557 26.9886 15.4178C26.9886 11.0282 23.412 7.46969 19 7.46969C14.588 7.46969 11.0114 11.0282 11.0114 15.4178C11.0114 17.9557 12.207 20.2159 14.0684 21.671C13.8862 21.7625 13.7062 21.857 13.5285 21.9542C11.8496 22.8725 10.2847 24.0774 8.9601 25.2497C7.63152 26.4255 6.51316 27.5965 5.72772 28.4719C4.01967 25.9086 3.02273 22.8233 3.02273 19.4992Z" fill="#BEBEBE"/>
</svg>
