<?xml version="1.0" encoding="utf-8"?>
<!-- Svg Vector Icons : http://www.onlinewebfonts.com/icon -->
<!DOCTYPE svg PUBLIC "-//W3C//DTD SVG 1.1//EN" "http://www.w3.org/Graphics/SVG/1.1/DTD/svg11.dtd">
<svg version="1.1" xmlns="http://www.w3.org/2000/svg" xmlns:xlink="http://www.w3.org/1999/xlink" x="0px" y="0px" viewBox="0 0 256 256" enable-background="new 0 0 256 256" xml:space="preserve">
<metadata> Svg Vector Icons : http://www.onlinewebfonts.com/icon </metadata>
<g><g><path fill="#bebebe" d="M246,108.9c0-46.3-13.6-83.9-30.3-84.2c0.1,0,0.1,0,0.2,0h-19.1c0,0-44.9,33.7-109.5,47c-2,10.5-3.2,22.9-3.2,37.2s1.3,26.8,3.2,37.2c64.6,13.2,109.5,47,109.5,47h19.1c-0.1,0-0.1,0-0.2,0C232.4,192.8,246,155.2,246,108.9L246,108.9z M209.3,180.4c-2.2,0-4.5-2.2-5.7-3.6c-2.9-3.3-5.7-8.3-8.1-14.6c-5.4-14.1-8.3-33-8.3-53.3c0-20.2,3-39.2,8.3-53.3c2.4-6.3,5.2-11.4,8.1-14.6c1.2-1.3,3.5-3.6,5.7-3.6c2.2,0,4.5,2.2,5.7,3.6c2.9,3.3,5.7,8.3,8.1,14.6c5.4,14.1,8.3,33,8.3,53.3c0,20.2-3,39.2-8.3,53.3c-2.4,6.3-5.2,11.3-8.1,14.6C213.8,178.1,211.5,180.4,209.3,180.4z M68,108.9c0-12,0.9-23.6,2.6-34.4c-10.9,1.5-20.5,2.4-32.3,2.4c-15.5,0-15.5,0-15.5,0L10,98.8v20.3l12.8,21.8c0,0,0,0,15.5,0c11.8,0,21.4,0.9,32.3,2.4C68.9,132.5,68,120.9,68,108.9L68,108.9z M94.8,158l-29.5-5.7l18.9,74.1c1,3.8,4.8,5.8,8.5,4.3l27.3-10.9c3.7-1.5,5.2-5.5,3.3-9L94.8,158L94.8,158z M209.3,136.4c-0.8,0-1.7-0.9-2.2-1.4c-1.1-1.3-2.2-3.2-3.1-5.6c-2.1-5.4-3.2-12.7-3.2-20.5c0-7.8,1.1-15.1,3.2-20.5c0.9-2.4,2-4.4,3.1-5.6c0.5-0.5,1.4-1.4,2.2-1.4c0.8,0,1.7,0.9,2.2,1.4c1.1,1.3,2.2,3.2,3.1,5.6c2.1,5.4,3.2,12.7,3.2,20.5c0,7.8-1.1,15.1-3.2,20.5c-0.9,2.4-2,4.4-3.1,5.6C211.1,135.6,210.1,136.4,209.3,136.4z"/></g></g>
</svg>