<svg width="24" height="26" viewBox="0 0 24 26" fill="none" xmlns="http://www.w3.org/2000/svg">
<path d="M3.33688 25.1376H7.9543C8.69272 25.1376 9.29093 24.5424 9.29093 23.8078V18.0544C9.29093 16.5665 10.5029 15.3607 11.9984 15.3607C13.494 15.3607 14.706 16.5665 14.706 18.0544V23.8078C14.706 24.5424 15.3042 25.1376 16.0426 25.1376H20.66C22.5045 25.1376 24 23.6497 24 21.8146V9.88633C24 8.81998 23.4859 7.81873 22.6166 7.19566L13.9551 0.968052C12.7867 0.131092 11.2102 0.131092 10.0418 0.968052L1.38336 7.19566C0.514086 7.81873 0 8.81998 0 9.88633V21.8177C0 23.6528 1.49552 25.1407 3.34 25.1407L3.33688 25.1376Z" fill="#BEBEBE"/>
</svg>
