<svg width="18" height="15" viewBox="0 0 18 15" fill="none" xmlns="http://www.w3.org/2000/svg">
<path d="M11.3522 0.504929C11.0699 0.408468 10.7574 0.471438 10.5328 0.669173L6.5318 4.20755L2.8362 4.91566C0.943879 5.27764 -0.299887 7.11101 0.0628946 9.00313C0.381357 10.6672 1.8403 11.8272 3.47533 11.8352L4.42209 13.9609C4.58313 14.3217 4.96657 14.5092 5.33677 14.4396C5.39914 14.4276 5.4601 14.409 5.52046 14.3821C5.9388 14.1956 6.12791 13.7034 5.9402 13.2837L5.18054 11.5779L7.84676 11.0683L12.8718 12.8774C13.0145 12.9298 13.1656 12.9392 13.3097 12.9123C13.4483 12.8854 13.5819 12.8225 13.6932 12.7286C13.9206 12.5341 14.0257 12.2323 13.9701 11.9401L11.9001 1.13523C11.8432 0.842242 11.6354 0.60159 11.3522 0.504929ZM1.69551 8.69008C1.505 7.6998 2.15817 6.7382 3.14845 6.54828L6.25164 5.95347L6.94151 9.5488L3.83711 10.143C2.84603 10.3333 1.88462 9.68036 1.69551 8.69008ZM12.063 10.8202L8.64071 9.58771L7.81788 5.28968L10.5415 2.87976L12.063 10.8202Z" fill="#F83030"/>
<path d="M16.7684 4.46835L14.8045 4.84377C14.3545 4.931 14.0589 5.36598 14.1447 5.8172C14.2311 6.26782 14.6669 6.56282 15.1181 6.47699L17.0815 6.10017C17.5333 6.01433 17.8277 5.57916 17.7418 5.12854C17.6548 4.67671 17.2204 4.38132 16.7684 4.46835ZM14.4499 2.88246C14.5604 2.8604 14.6691 2.81608 14.7684 2.74709L16.0316 1.8619C16.4078 1.59858 16.4997 1.08018 16.2356 0.704565C15.9733 0.328347 15.4543 0.238705 15.0794 0.500012L13.8148 1.38601C13.44 1.64892 13.3476 2.16652 13.6117 2.54274C13.8048 2.81889 14.1381 2.94222 14.4499 2.88246ZM17.3598 8.79506L15.8592 8.4391C15.4125 8.33321 14.9641 8.60956 14.8588 9.05597C14.753 9.50318 15.0299 9.95119 15.4757 10.0571L16.9776 10.4122C17.0949 10.4405 17.2122 10.4417 17.3243 10.4203C17.6362 10.3613 17.8997 10.1239 17.9769 9.79537C18.0834 9.34755 17.807 8.90055 17.3598 8.79506Z" fill="#F83030"/>
</svg>
