<svg width="20" height="20" viewBox="0 0 20 20" fill="none" xmlns="http://www.w3.org/2000/svg">
    <path
        d="M10.3046 0.740059C10.5104 0.293943 10.9568 0 11.4582 0C12.4933 0 13.3101 0.29883 13.7418 1.07704C13.9298 1.41574 14.0029 1.77938 14.0363 2.09765C14.0687 2.40613 14.0687 2.73429 14.0687 3.02372L14.0686 5.83333H16.6802C18.2115 5.83333 19.3672 7.20646 19.1374 8.71242L17.9933 16.2124C17.8079 17.4273 16.7686 18.3333 15.536 18.3333H6.6665V7.5H6.98095L10.3046 0.740059Z"
        fill="#54D227" />
    <path
        d="M5.00016 7.5H3.31951C1.93992 7.5 0.833496 8.62592 0.833496 10V15.8333C0.833496 17.2074 1.93992 18.3333 3.31951 18.3333H5.00016V7.5Z"
        fill="#54D227" />
</svg>